<svg width="24" height="24" viewBox="0 0 24 24" fill="none" xmlns="http://www.w3.org/2000/svg">
<path d="M21.4555 10.154C21.5785 10.813 21.6455 11.502 21.6455 12.221C21.6455 17.845 17.8815 21.844 12.1965 21.844C10.9037 21.8444 9.62344 21.59 8.42894 21.0955C7.23443 20.6009 6.14908 19.8758 5.2349 18.9616C4.32072 18.0475 3.59563 16.9621 3.10107 15.7676C2.6065 14.5731 2.35215 13.2929 2.35254 12C2.35215 10.7072 2.6065 9.42691 3.10107 8.2324C3.59563 7.0379 4.32072 5.95255 5.2349 5.03837C6.14908 4.12419 7.23443 3.3991 8.42894 2.90453C9.62344 2.40997 10.9037 2.15561 12.1965 2.15601C14.8545 2.15601 17.0755 3.13401 18.7795 4.72201L16.0045 7.49701V7.49001C14.9715 6.50601 13.6605 6.00101 12.1965 6.00101C8.94854 6.00101 6.30854 8.74501 6.30854 11.994C6.30854 15.242 8.94854 17.992 12.1965 17.992C15.1435 17.992 17.1495 16.307 17.5615 13.993H12.1965V10.154H21.4565H21.4555Z" fill="#FFB400"/>
</svg>
