<svg width="24" height="24" viewBox="0 0 24 24" fill="none" xmlns="http://www.w3.org/2000/svg">
<path d="M20.05 11H3.95C3.42533 11 3 11.4253 3 11.95V12.05C3 12.5747 3.42533 13 3.95 13H20.05C20.5747 13 21 12.5747 21 12.05V11.95C21 11.4253 20.5747 11 20.05 11Z" fill="black"/>
<path d="M10.8162 16.4798L4.64952 11.3053C4.44856 11.1367 4.01225 11.3258 3.675 11.7277L3.61072 11.8043C3.27347 12.2063 3.16298 12.6688 3.36394 12.8374L9.5306 18.0119C9.73156 18.1805 10.1679 17.9914 10.5051 17.5894L10.5694 17.5128C10.9066 17.1109 11.0171 16.6484 10.8162 16.4798Z" fill="black"/>
<path d="M9.03053 6.30527L3 11.5C2.79904 11.6686 2.7734 12.1109 3.11065 12.5128L3.17493 12.5894C3.51218 12.9913 3.94849 13.1804 4.14945 13.0118L10.3161 7.83736C10.5171 7.66873 10.4066 7.20621 10.0693 6.80429L10.005 6.72769C9.6678 6.32577 9.23149 6.13664 9.03053 6.30527Z" fill="black"/>
</svg>
