<svg width="14" height="14" viewBox="0 0 14 14" fill="none" xmlns="http://www.w3.org/2000/svg">
<path d="M12.4156 4.82759L8.94433 4.3231L7.39258 1.1772C7.35019 1.09107 7.28047 1.02134 7.19433 0.97896C6.97832 0.87232 6.71582 0.961187 6.60781 1.1772L5.05605 4.3231L1.58476 4.82759C1.48906 4.84126 1.40156 4.88638 1.33457 4.95474C1.25358 5.03798 1.20895 5.14998 1.21049 5.26611C1.21203 5.38224 1.25961 5.49301 1.34277 5.57408L3.85429 8.02271L3.26094 11.4803C3.24702 11.5608 3.25592 11.6435 3.28663 11.7191C3.31733 11.7947 3.36862 11.8603 3.43466 11.9082C3.50071 11.9562 3.57887 11.9847 3.66029 11.9905C3.74171 11.9963 3.82313 11.9792 3.89531 11.9411L7.00019 10.3086L10.1051 11.9411C10.1898 11.9862 10.2883 12.0012 10.3826 11.9848C10.6205 11.9438 10.7805 11.7182 10.7395 11.4803L10.1461 8.02271L12.6576 5.57408C12.726 5.50709 12.7711 5.41958 12.7848 5.32388C12.8217 5.08462 12.6549 4.86314 12.4156 4.82759Z" fill="#FFB400"/>
</svg>
