<svg width="24" height="24" viewBox="0 0 24 24" fill="none" xmlns="http://www.w3.org/2000/svg">
<path d="M10.7402 11.72C11.2102 12.95 11.1602 14.23 9.75022 14.74C6.85022 15.81 6.20022 13 6.16022 12.86L10.7402 11.72ZM5.71022 10.91L10.0302 9.84004C9.84022 8.79004 10.1302 7.74004 10.1302 6.50004C10.1302 4.82004 8.80022 1.53004 6.68022 2.06004C4.26022 2.66004 3.91022 5.35004 4.00022 6.65004C4.12022 7.95004 5.64022 10.73 5.71022 10.91ZM17.8502 19.85C17.8202 20 17.1602 22.8 14.2602 21.74C12.8602 21.22 12.8002 19.94 13.2702 18.71L17.8502 19.85ZM20.0002 13.65C20.1002 12.35 19.7602 9.65004 17.3302 9.05004C15.2202 8.50004 13.8902 11.81 13.8902 13.5C13.8902 14.73 14.1702 15.78 14.0002 16.83L18.3002 17.9C18.3802 17.72 19.8902 14.94 20.0002 13.65Z" fill="white"/>
</svg>
