<svg width="50" height="42" viewBox="0 0 50 42" fill="none" xmlns="http://www.w3.org/2000/svg">
<path d="M10.8577 0.100909C13.6671 -0.261924 16.5862 0.360881 18.9906 1.85344C20.3478 2.65008 21.4335 3.80313 22.5468 4.89474C23.3542 5.68185 24.1533 6.47849 24.9629 7.26366L24.9928 7.34533C24.388 7.93819 23.7018 9.12372 22.934 10.9021C21.3238 11.466 20.225 12.0355 19.6374 12.6101C18.3259 11.353 17.057 10.0514 15.7508 8.78791C14.5087 7.6296 12.6315 7.16274 11.0047 7.69435C9.15213 8.21294 7.73834 9.97713 7.64031 11.892C7.57646 12.8882 7.83754 13.9 8.37864 14.7402C8.7153 15.2814 9.20758 15.694 9.64851 16.1459C10.7087 17.2068 11.7942 18.2432 12.8383 19.3188C12.2806 19.8644 11.6206 20.9205 10.8577 22.4871C9.23512 23.2528 8.10956 23.9493 7.48058 24.5762C6.07109 23.2565 4.7233 21.8657 3.3267 20.5314C1.66374 18.8086 0.551656 16.5735 0.167942 14.2152C-0.253851 11.6851 0.146657 9.02144 1.32299 6.73749C2.31069 4.8226 3.80532 3.15933 5.62391 1.9911C7.20465 1.00138 8.99532 0.307993 10.8577 0.101104V0.100909Z" fill="#EA4335"/>
<path d="M25.0162 31.2627L37.2029 19.303L40.4977 21.2517L42.5594 24.588L25.0162 41.8698L12.8467 29.8815L15.182 26.6092L18.2363 24.5837L25.0162 31.2627Z" fill="#34A853"/>
<path d="M19.6478 12.6218L22.713 14.2729L25.0161 17.9218L12.8466 29.8815L7.48047 24.5763L19.6478 12.6218Z" fill="#FBBC05"/>
<path d="M39.7104 0.174101C43.2816 0.776879 46.5661 2.99705 48.3666 6.1381C50.4173 9.58891 50.5292 14.0668 48.7095 17.6375C47.9553 19.1713 46.8036 20.4655 45.5773 21.6421C44.5599 22.6105 43.5937 23.6439 42.5593 24.588C40.7694 22.8314 38.9776 21.0755 37.2027 19.303C38.4673 18.0311 39.752 16.7802 41.0209 15.5127C41.8391 14.6894 42.3515 13.5606 42.3931 12.3992C42.4495 11.0805 41.9264 9.74291 40.9666 8.82843C39.9885 7.90657 38.6185 7.38255 37.2697 7.49377C36.1098 7.54899 34.9899 8.07321 34.1717 8.88988C31.1184 11.8983 28.0727 14.9153 25.016 17.9218C23.2189 16.1629 21.4195 14.4063 19.6479 12.6219C19.6447 12.6177 19.6411 12.6138 19.6372 12.6102C21.4269 10.8598 23.2049 9.09774 24.9926 7.34541C26.2881 6.07452 27.5794 4.79818 28.8758 3.52652C30.5548 1.8471 32.7686 0.746934 35.0816 0.242156C36.606 -0.043288 38.1787 -0.0751768 39.7104 0.174101Z" fill="#4285F4"/>
</svg>
